<?xml version="1.0" encoding="UTF-8"?>
<svg version="1.1" height="27" width="32" viewBox="0 0 500 415" xmlns="http://www.w3.org/2000/svg">
<path d="m0 0v189h1c11.555-18.721 25.783-36.101 38.579-54 21.424-29.969 42.206-60.536 64.294-90l24.498-34c2.382-3.2195 5.72-10.201 10.633-9.2631 7.909 1.5107 16.846 13.466 22.996 18.459 20.941 17.002 40.517 35.682 61 53.224l19 16.155c2.096 1.7952 5.001 5.2192 8 5.2192 2.996 0 5.909-3.4225 8-5.22l19-16.154 60-52.702c5.98-5.2023 16.114-17.476 23.996-18.982 4.865-0.9292 8.362 6.0756 10.773 9.2631l24.371 34c34.125 47.542 72.139 94.226 102.86 144h1v-189h-500z" fill="#fff"/>
<path d="m135 1 1 1-1-1z" fill="#ffa995"/>
<path d="m136 1v1h4c-1.506-0.683-2.315-0.8259-4-1z" fill="#ff7757"/>
<path d="m140 1 1 1-1-1z" fill="#fec8bb"/>
<path d="m359 1 1 1-1-1z" fill="#ffa995"/>
<path d="m360 1v1h4c-1.506-0.683-2.315-0.8259-4-1z" fill="#ff7757"/>
<path d="m364 1 1 1-1-1z" fill="#ffa995"/>
<path d="m134 2 1 1-1-1z" fill="#ff8f6f"/>
<path d="m135.18 3.0324c-4.118 2.2543-6.933 8.2618-9.608 11.968l-20.728 29-73.427 102-23 32c-2.2581 3.159-7.8098 8.553-6.6844 12.83 0.9954 3.784 6.4636 7.42 9.2631 9.885l24 21.451 88 79.003c32.308 29.078 64.157 58.78 97 87.255l22 19.647c3.113 2.779 6.575 6.42 11 4.093 5.961-3.134 10.98-9.459 16-13.879l39-35.116c43.588-39.23 86.723-79.15 131-117.59 15.217-13.212 30.167-26.849 45-40.49 3.761-3.459 14.132-9.613 14.404-15.176 0.376-7.734-13.327-20.781-17.695-26.91l-52.418-73-46.582-65c-3.992-5.599-11.621-21.312-18.749-22.627-8.321-1.5354-21.167 14.245-26.96 19.207l-63 54.996c-4.894 4.204-16.428 18.37-23 18.37-6.438 0-18.183-14.06-23-18.228l-62-54.138c-5.592-4.7827-21.738-23.968-29.816-19.547z" fill="#ff4b20"/>
<path d="m141 2 1 1-1-1m217 0 1 1-1-1z" fill="#ff7757"/>
<path d="m365 2 1 1-1-1z" fill="#ff8f6f"/>
<path d="m133 3 1 1-1-1z" fill="#ffa995"/>
<path d="m142 3 1 1-1-1m215 0 1 1-1-1z" fill="#ff7757"/>
<path d="m366 3 1 1-1-1z" fill="#ffa995"/>
<path d="m143 4 1 1-1-1m-11 1 1 1-1-1z" fill="#ff7757"/>
<path d="m145 5 1 1-1-1m209 0 1 1-1-1z" fill="#fec8bb"/>
<path d="m367 5 1 1-1-1z" fill="#ff7757"/>
<path d="m131 6 1 1-1-1m15 0 1 1-1-1z" fill="#ffa995"/>
<path d="m353 6 1 1-1-1z" fill="#ff8f6f"/>
<path d="m368 6 1 1-1-1z" fill="#ffa995"/>
<path d="m147 7 1 1-1-1z" fill="#ff8f6f"/>
<path d="m352 7 1 1-1-1z" fill="#ff7757"/>
<path d="m130 8 1 1-1-1z" fill="#ff8f6f"/>
<path d="m148 8 1 1-1-1m203 0 1 1-1-1m18 0 1 1-1-1z" fill="#ff7757"/>
<path d="m129 9 1 1-1-1z" fill="#ffa995"/>
<path d="m149 9 1 1-1-1m201 0 1 1-1-1z" fill="#ff7757"/>
<path d="m370 9 1 1-1-1z" fill="#ff8f6f"/>
<path d="m128 10 1 1-1-1z" fill="#ffa995"/>
<path d="m150 10 1 1-1-1z" fill="#ff7757"/>
<path d="m371 10 1 1-1-1z" fill="#ffa995"/>
<path d="m372 11 1 1-1-1z" fill="#fec8bb"/>
<path d="m127 12 1 1-1-1z" fill="#ff8f6f"/>
<path d="m346 12 1 1-1-1z" fill="#fec8bb"/>
<path d="m372 12 1 1-1-1z" fill="#ff8f6f"/>
<path d="m126 13 1 1-1-1z" fill="#ffa995"/>
<path d="m154 13 1 1-1-1m191 0 1 1-1-1z" fill="#fec8bb"/>
<path d="m373 13 1 1-1-1z" fill="#ffa995"/>
<path d="m125 14 1 1-1-1z" fill="#fec8bb"/>
<path d="m155 14 1 1-1-1z" fill="#ff8f6f"/>
<path d="m344 14 1 1-1-1z" fill="#ff7757"/>
<path d="m374 14 1 1-1-1z" fill="#fec8bb"/>
<path d="m125 15 1 1-1-1m31 0 1 1-1-1z" fill="#ff7757"/>
<path d="m342 15 1 1-1-1z" fill="#fec8bb"/>
<path d="m343 15 1 1-1-1m31 0 1 1-1-1z" fill="#ff7757"/>
<path d="m124 16 1 1-1-1z" fill="#ffa995"/>
<path d="m157 16 1 1-1-1z" fill="#ff7757"/>
<path d="m341 16 1 1-1-1z" fill="#fec8bb"/>
<path d="m375 16 1 1-1-1z" fill="#ff8f6f"/>
<path d="m123 17 1 1-1-1m217 0 1 1-1-1m36 0 1 1-1-1m-37 1 1 1-1-1m38 0 1 1-1-1z" fill="#fec8bb"/>
<path d="m122 19 1 1-1-1z" fill="#ff7757"/>
<path d="m161 19 1 1-1-1m177 0 1 1-1-1z" fill="#fec8bb"/>
<path d="m377 19 1 1-1-1z" fill="#ff7757"/>
<path d="m121 20 1 1-1-1z" fill="#ffa995"/>
<path d="m162 20 1 1-1-1z" fill="#fec8bb"/>
<path d="m337 20 1 1-1-1m41 0 1 1-1-1z" fill="#ffa995"/>
<path d="m120 21 1 1-1-1z" fill="#fec8bb"/>
<path d="m163 21 1 1-1-1m173 0 1 1-1-1z" fill="#ffa995"/>
<path d="m379 21 1 1-1-1z" fill="#fec8bb"/>
<path d="m164 22 1 1-1-1z" fill="#ff7757"/>
<path d="m334 22 1 1-1-1z" fill="#fec8bb"/>
<path d="m119 23 1 1-1-1z" fill="#ff7757"/>
<path d="m166 23 1 1-1-1m167 0 1 1-1-1z" fill="#fec8bb"/>
<path d="m380 23 1 1-1-1z" fill="#ff7757"/>
<path d="m118 24 1 1-1-1m49 0 1 1-1-1m165 0 1 1-1-1z" fill="#fec8bb"/>
<path d="m381 24 1 1-1-1z" fill="#ffa995"/>
<path d="m117 25 1 1-1-1m51 0 1 1-1-1m163 0 1 1-1-1m51 0 1 1-1-1z" fill="#fec8bb"/>
<path d="m117 26 1 1-1-1z" fill="#ff7757"/>
<path d="m169 26 1 1-1-1z" fill="#fec8bb"/>
<path d="m330 26 1 1-1-1z" fill="#ffa995"/>
<path d="m382 26 1 1-1-1z" fill="#ff7757"/>
<path d="m116 27 1 1-1-1m54 0 1 1-1-1m159 0 1 1-1-1m54 0 1 1-1-1m-212 1 1 1-1-1m157 0 1 1-1-1z" fill="#ffa995"/>
<path d="m115 29 1 1-1-1z" fill="#ff7757"/>
<path d="m172 29 1 1-1-1m155 0 1 1-1-1m-213 1 1 1-1-1z" fill="#ff8f6f"/>
<path d="m174 30 1 1-1-1z" fill="#fec8bb"/>
<path d="m325 30 1 1-1-1z" fill="#ffa995"/>
<path d="m385 30 1 1-1-1z" fill="#ff7757"/>
<path d="m113 31 1 1-1-1m62 0 1 1-1-1m149 0 1 1-1-1z" fill="#ffa995"/>
<path d="m386 31 1 1-1-1z" fill="#ff8f6f"/>
<path d="m176 32 1 1-1-1m147 0 1 1-1-1z" fill="#ffa995"/>
<path d="m112 33 1 1-1-1z" fill="#ff7757"/>
<path d="m177 33 1 1-1-1m145 0 1 1-1-1z" fill="#ffa995"/>
<path d="m387 33 1 1-1-1z" fill="#ff7757"/>
<path d="m111 34 1 1-1-1z" fill="#ff8f6f"/>
<path d="m178 34 1 1-1-1m143 0 1 1-1-1z" fill="#ffa995"/>
<path d="m388 34 1 1-1-1m-209 1 1 1-1-1m141 0 1 1-1-1z" fill="#ff8f6f"/>
<path d="m180 36 1 1-1-1z" fill="#ff7757"/>
<path d="m181 36 1 1-1-1z" fill="#fec8bb"/>
<path d="m318 36 1 1-1-1z" fill="#ffa995"/>
<path d="m319 36 1 1-1-1z" fill="#ff7757"/>
<path d="m109 37 1 1-1-1z" fill="#ff8f6f"/>
<path d="m182 37 1 1-1-1m135 0 1 1-1-1z" fill="#ffa995"/>
<path d="m390 37 1 1-1-1z" fill="#ff8f6f"/>
<path d="m108 38 1 1-1-1m75 0 1 1-1-1m133 0 1 1-1-1m75 0 1 1-1-1m-207 1 1 1-1-1m131 0 1 1-1-1z" fill="#ffa995"/>
<path d="m392 39 1 1-1-1z" fill="#fec8bb"/>
<path d="m107 40 1 1-1-1z" fill="#ff7757"/>
<path d="m185 40 1 1-1-1m129 0 1 1-1-1z" fill="#ffa995"/>
<path d="m392 40 1 1-1-1z" fill="#ff7757"/>
<path d="m106 41 1 1-1-1z" fill="#ff8f6f"/>
<path d="m186 41 1 1-1-1z" fill="#ffa995"/>
<path d="m313 41 1 1-1-1m80 0 1 1-1-1z" fill="#ff8f6f"/>
<path d="m105 42 1 1-1-1z" fill="#fec8bb"/>
<path d="m187 42 1 1-1-1m125 0 1 1-1-1z" fill="#ff8f6f"/>
<path d="m394 42 1 1-1-1z" fill="#fec8bb"/>
<path d="m105 43 1 1-1-1m83 0 1 1-1-1m123 0 1 1-1-1m83 0 1 1-1-1z" fill="#ff7757"/>
<path d="m104 44 1 1-1-1z" fill="#ff8f6f"/>
<path d="m190 44 1 1-1-1m119 0 1 1-1-1z" fill="#ffa995"/>
<path d="m395 44 1 1-1-1z" fill="#ff8f6f"/>
<path d="m103 45 1 1-1-1m88 0 1 1-1-1z" fill="#ffa995"/>
<path d="m308 45 1 1-1-1z" fill="#ff8f6f"/>
<path d="m396 45 1 1-1-1z" fill="#ffa995"/>
<path d="m102 46 1 1-1-1z" fill="#fec8bb"/>
<path d="m192 46 1 1-1-1z" fill="#ffa995"/>
<path d="m307 46 1 1-1-1z" fill="#ff8f6f"/>
<path d="m397 46 1 1-1-1z" fill="#fec8bb"/>
<path d="m102 47 1 1-1-1z" fill="#ff7757"/>
<path d="m193 47 1 1-1-1z" fill="#ffa995"/>
<path d="m306 47 1 1-1-1z" fill="#ff8f6f"/>
<path d="m397 47 1 1-1-1z" fill="#ff7757"/>
<path d="m101 48 1 1-1-1z" fill="#ffa995"/>
<path d="m194 48 1 1-1-1m111 0 1 1-1-1z" fill="#ff8f6f"/>
<path d="m398 48 1 1-1-1z" fill="#ffa995"/>
<path d="m100 49 1 1-1-1z" fill="#fec8bb"/>
<path d="m195 49 1 1-1-1m109 0 1 1-1-1z" fill="#ff8f6f"/>
<path d="m399 49 1 1-1-1z" fill="#ffa995"/>
<path d="m99 50 1 1-1-1z" fill="#fec8bb"/>
<path d="m196 50 1 1-1-1m107 0 1 1-1-1m-204 1 1 1-1-1z" fill="#ff7757"/>
<path d="m400 51 1 1-1-1z" fill="#ff8f6f"/>
<path d="m98 52 1 1-1-1z" fill="#ffa995"/>
<path d="m199 52 1 1-1-1m101 0 1 1-1-1z" fill="#ff8f6f"/>
<path d="m401 52 1 1-1-1z" fill="#ffa995"/>
<path d="m97 53 1 1-1-1z" fill="#fec8bb"/>
<path d="m200 53 1 1-1-1m99 0 1 1-1-1z" fill="#ff8f6f"/>
<path d="m402 53 1 1-1-1z" fill="#fec8bb"/>
<path d="m97 54 1 1-1-1z" fill="#ff7757"/>
<path d="m201 54 1 1-1-1m97 0 1 1-1-1z" fill="#ff8f6f"/>
<path d="m96 55 1 1-1-1z" fill="#ffa995"/>
<path d="m202 55 1 1-1-1m95 0 1 1-1-1z" fill="#ff8f6f"/>
<path d="m403 55 1 1-1-1z" fill="#ffa995"/>
<path d="m95 56 1 1-1-1z" fill="#fec8bb"/>
<path d="m203 56 1 1-1-1m93 0 1 1-1-1z" fill="#ff7757"/>
<path d="m404 56 1 1-1-1z" fill="#fec8bb"/>
<path d="m204 57 1 1-1-1m91 0 1 1-1-1m-201 1 1 1-1-1m311 0 1 1-1-1z" fill="#ff7757"/>
<path d="m93 59 1 1-1-1z" fill="#ffa995"/>
<path d="m292 59 1 1-1-1z" fill="#fec8bb"/>
<path d="m406 59 1 1-1-1m-198 1 1 1-1-1m83 0 1 1-1-1z" fill="#ff8f6f"/>
<path d="m407 60 1 1-1-1z" fill="#fec8bb"/>
<path d="m209 61 1 1-1-1z" fill="#ff8f6f"/>
<path d="m290 61 1 1-1-1z" fill="#ff7757"/>
<path d="m91 62 1 1-1-1z" fill="#ff8f6f"/>
<path d="m210 62 1 1-1-1m79 0 1 1-1-1z" fill="#ff7757"/>
<path d="m408 62 1 1-1-1z" fill="#ff8f6f"/>
<path d="m211 63 1 1-1-1m77 0 1 1-1-1z" fill="#ff7757"/>
<path d="m409 63 1 1-1-1z" fill="#fec8bb"/>
<path d="m212 64 1 1-1-1m75 0 1 1-1-1m-198 1 1 1-1-1z" fill="#ff7757"/>
<path d="m214 65 1 1-1-1m71 0 1 1-1-1z" fill="#fec8bb"/>
<path d="m410 65 1 1-1-1z" fill="#ff7757"/>
<path d="m88 66 1 1-1-1m127 0 1 1-1-1m69 0 1 1-1-1z" fill="#ffa995"/>
<path d="m411 66 1 1-1-1m-195 1 1 1-1-1z" fill="#ff8f6f"/>
<path d="m283 67 1 1-1-1z" fill="#ff7757"/>
<path d="m412 67 1 1-1-1z" fill="#fec8bb"/>
<path d="m87 68 1 1-1-1m130 0 1 1-1-1m65 0 1 1-1-1m130 0 1 1-1-1z" fill="#ff7757"/>
<path d="m86 69 1 1-1-1z" fill="#ff8f6f"/>
<path d="m218 69 1 1-1-1m63 0 1 1-1-1z" fill="#ff7757"/>
<path d="m413 69 1 1-1-1z" fill="#ff8f6f"/>
<path d="m85 70 1 1-1-1z" fill="#fec8bb"/>
<path d="m219 70 1 1-1-1z" fill="#ff7757"/>
<path d="m414 70 1 1-1-1z" fill="#ffa995"/>
<path d="m84 72 1 1-1-1m331 0 1 1-1-1z" fill="#ff7757"/>
<path d="m83 73 1 1-1-1z" fill="#ffa995"/>
<path d="m223 73 1 1-1-1m53 0 1 1-1-1z" fill="#fec8bb"/>
<path d="m416 73 1 1-1-1z" fill="#ffa995"/>
<path d="m82 74 1 1-1-1z" fill="#fec8bb"/>
<path d="m224 74 1 1-1-1m51 0 1 1-1-1z" fill="#ff8f6f"/>
<path d="m417 74 1 1-1-1z" fill="#fec8bb"/>
<path d="m225 75 1 1-1-1m49 0 1 1-1-1z" fill="#ff7757"/>
<path d="m81 76 1 1-1-1z" fill="#ff8f6f"/>
<path d="m226 76 1 1-1-1m47 0 1 1-1-1z" fill="#ff7757"/>
<path d="m418 76 1 1-1-1z" fill="#ff8f6f"/>
<path d="m80 77 1 1-1-1z" fill="#fec8bb"/>
<path d="m227 77 1 1-1-1z" fill="#ff7757"/>
<path d="m419 77 1 1-1-1z" fill="#ffa995"/>
<path d="m79 78 1 1-1-1z" fill="#fec8bb"/>
<path d="m79 79 1 1-1-1z" fill="#ff7757"/>
<path d="m230 79 1 1-1-1m39 0 1 1-1-1z" fill="#fec8bb"/>
<path d="m420 79 1 1-1-1z" fill="#ff8f6f"/>
<path d="m78 80 1 1-1-1z" fill="#ffa995"/>
<path d="m231 80 1 1-1-1m37 0 1 1-1-1z" fill="#fec8bb"/>
<path d="m421 80 1 1-1-1z" fill="#ffa995"/>
<path d="m77 81 1 1-1-1z" fill="#fec8bb"/>
<path d="m232 81 1 1-1-1m35 0 1 1-1-1z" fill="#ffa995"/>
<path d="m422 81 1 1-1-1z" fill="#fec8bb"/>
<path d="m233 82 1 1-1-1z" fill="#ff7757"/>
<path d="m265 82 1 1-1-1z" fill="#fec8bb"/>
<path d="m266 82 1 1-1-1z" fill="#ff7757"/>
<path d="m76 83 1 1-1-1z" fill="#ff8f6f"/>
<path d="m235 83 1 1-1-1m29 0 1 1-1-1z" fill="#fec8bb"/>
<path d="m423 83 1 1-1-1z" fill="#ff8f6f"/>
<path d="m75 84 1 1-1-1m161 0 1 1-1-1m27 0 1 1-1-1z" fill="#fec8bb"/>
<path d="m424 84 1 1-1-1z" fill="#ffa995"/>
<path d="m237 85 1 1-1-1m25 0 1 1-1-1z" fill="#fec8bb"/>
<path d="m74 86 1 1-1-1z" fill="#ff7757"/>
<path d="m238 86 1 1-1-1m23 0 1 1-1-1z" fill="#fec8bb"/>
<path d="m425 86 1 1-1-1z" fill="#ff7757"/>
<path d="m73 87 1 1-1-1z" fill="#ffa995"/>
<path d="m239 87 1 1-1-1m21 0 1 1-1-1z" fill="#fec8bb"/>
<path d="m426 87 1 1-1-1z" fill="#ffa995"/>
<path d="m72 88 1 1-1-1z" fill="#fec8bb"/>
<path d="m240 88 1 1-1-1m19 0 1 1-1-1z" fill="#ffa995"/>
<path d="m427 88 1 1-1-1z" fill="#fec8bb"/>
<path d="m241 89 1 1-1-1m17 0 1 1-1-1z" fill="#ffa995"/>
<path d="m71 90 1 1-1-1z" fill="#ff8f6f"/>
<path d="m243 90 1 1-1-1m13 0 1 1-1-1z" fill="#fec8bb"/>
<path d="m428 90 1 1-1-1z" fill="#ff8f6f"/>
<path d="m70 91 1 1-1-1m174 0 1 1-1-1m11 0 1 1-1-1m174 0 1 1-1-1m-184 1 1 1-1-1m9 0 1 1-1-1z" fill="#fec8bb"/>
<path d="m69 93 1 1-1-1z" fill="#ff7757"/>
<path d="m246 93 1 1-1-1m7 0 1 1-1-1z" fill="#fec8bb"/>
<path d="m430 93 1 1-1-1z" fill="#ff7757"/>
<path d="m68 94 1 1-1-1m179 0 1 1-1-1m5 0 1 1-1-1z" fill="#ffa995"/>
<path d="m431 94 1 1-1-1z" fill="#ff8f6f"/>
<path d="m67 95 1 1-1-1z" fill="#fec8bb"/>
<path d="m248 95 1 1-1-1m3 0 1 1-1-1z" fill="#ffa995"/>
<path d="m432 95 1 1-1-1z" fill="#fec8bb"/>
<path d="m249.67 96.333c-0.445 0.4446 0.611 0.3888 0.666 0.3334 0.445-0.4443-0.611-0.3889-0.666-0.3334m-183.67 0.6667 1 1-1-1m367 0 1 1-1-1z" fill="#ff8f6f"/>
<path d="m65 98 1 1-1-1z" fill="#fec8bb"/>
<path d="m434 98 1 1-1-1z" fill="#ffa995"/>
<path d="m64 100 1 1-1-1m371 0 1 1-1-1z" fill="#ff7757"/>
<path d="m63 101 1 1-1-1m373 0 1 1-1-1z" fill="#ffa995"/>
<path d="m62 102 1 1-1-1m375 0 1 1-1-1z" fill="#fec8bb"/>
<path d="m61 104 1 1-1-1m377 0 1 1-1-1z" fill="#ff8f6f"/>
<path d="m60 105 1 1-1-1m379 0 1 1-1-1z" fill="#ffa995"/>
<path d="m440 107 1 1-1-1z" fill="#ff7757"/>
<path d="m58 108 1 1-1-1m383 0 1 1-1-1z" fill="#ffa995"/>
<path d="m57 109 1 1-1-1m385 0 1 1-1-1z" fill="#fec8bb"/>
<path d="m56 111 1 1-1-1m387 0 1 1-1-1z" fill="#ff8f6f"/>
<path d="m55 112 1 1-1-1m389 0 1 1-1-1z" fill="#ffa995"/>
<path d="m53 115 1 1-1-1z" fill="#ff8f6f"/>
<path d="m446 115 1 1-1-1z" fill="#ffa995"/>
<path d="m52 116 1 1-1-1m395 0 1 1-1-1z" fill="#fec8bb"/>
<path d="m51 118 1 1-1-1m397 0 1 1-1-1z" fill="#ff8f6f"/>
<path d="m50 119 1 1-1-1m399 0 1 1-1-1z" fill="#ffa995"/>
<path d="m48 122 1 1-1-1m403 0 1 1-1-1z" fill="#ff8f6f"/>
<path d="m47 123 1 1-1-1m405 0 1 1-1-1z" fill="#fec8bb"/>
<path d="m46 125 1 1-1-1m407 0 1 1-1-1z" fill="#ff7757"/>
<path d="m45 126 1 1-1-1m409 0 1 1-1-1z" fill="#ffa995"/>
<path d="m43 129 1 1-1-1m413 0 1 1-1-1z" fill="#ff8f6f"/>
<path d="m42 130 1 1-1-1m415 0 1 1-1-1z" fill="#fec8bb"/>
<path d="m41 132 1 1-1-1m417 0 1 1-1-1z" fill="#ff7757"/>
<path d="m40 133 1 1-1-1m419 0 1 1-1-1z" fill="#ffa995"/>
<path d="m38 136 1 1-1-1m423 0 1 1-1-1z" fill="#ff8f6f"/>
<path d="m37 137 1 1-1-1m425 0 1 1-1-1z" fill="#fec8bb"/>
<path d="m463 139 1 1-1-1z" fill="#ff7757"/>
<path d="m35 140 1 1-1-1m429 0 1 1-1-1z" fill="#ffa995"/>
<path d="m33 143 1 1-1-1m433 0 1 1-1-1z" fill="#ff8f6f"/>
<path d="m32 144 1 1-1-1z" fill="#ffa995"/>
<path d="m467 144 1 1-1-1z" fill="#fec8bb"/>
<path d="m468 146 1 1-1-1z" fill="#ff7757"/>
<path d="m30 147 1 1-1-1z" fill="#ff8f6f"/>
<path d="m469 147 1 1-1-1z" fill="#ffa995"/>
<path d="m29 148 1 1-1-1m441 0 1 1-1-1z" fill="#fec8bb"/>
<path d="m28 150 1 1-1-1m443 0 1 1-1-1z" fill="#ff8f6f"/>
<path d="m27 151 1 1-1-1m445 0 1 1-1-1z" fill="#ffa995"/>
<path d="m25 154 1 1-1-1m449 0 1 1-1-1z" fill="#ff8f6f"/>
<path d="m24 155 1 1-1-1m451 0 1 1-1-1z" fill="#fec8bb"/>
<path d="m23 157 1 1-1-1z" fill="#ff7757"/>
<path d="m476 157 1 1-1-1z" fill="#ff8f6f"/>
<path d="m22 158 1 1-1-1m455 0 1 1-1-1z" fill="#ffa995"/>
<path d="m20 161 1 1-1-1m459 0 1 1-1-1z" fill="#ff8f6f"/>
<path d="m19 162 1 1-1-1m461 0 1 1-1-1z" fill="#fec8bb"/>
<path d="m481 164 1 1-1-1z" fill="#ff7757"/>
<path d="m17 165 1 1-1-1m465 0 1 1-1-1z" fill="#ffa995"/>
<path d="m15 168 1 1-1-1m469 0 1 1-1-1z" fill="#ff8f6f"/>
<path d="m14 169 1 1-1-1m471 0 1 1-1-1z" fill="#fec8bb"/>
<path d="m486 171 1 1-1-1z" fill="#ff7757"/>
<path d="m12 172 1 1-1-1m475 0 1 1-1-1z" fill="#ffa995"/>
<path d="m11 173 1 1-1-1m477 0 1 1-1-1z" fill="#fec8bb"/>
<path d="m10 175 1 1-1-1m479 0 1 1-1-1z" fill="#ff8f6f"/>
<path d="m9 176 1 1-1-1m481 0 1 1-1-1z" fill="#fec8bb"/>
<path d="m7 179 1 1-1-1m485 0 1 1-1-1z" fill="#ffa995"/>
<path d="m6 180 1 1-1-1m487 0 1 1-1-1z" fill="#fec8bb"/>
<path d="m5 182 1 1-1-1m489 0 1 1-1-1z" fill="#ff8f6f"/>
<path d="m4 183 1 1-1-1m491 0 1 1-1-1z" fill="#ffa995"/>
<path d="m2 186 1 1-1-1z" fill="#ff8f6f"/>
<path d="m497 186 1 1-1-1z" fill="#ffa995"/>
<path d="m1 187 1 1-1-1m497 0 1 1-1-1z" fill="#fec8bb"/>
<path d="m0.3333 189.67c-0.0555 0.055-0.1111 1.111 0.3334 0.666 0.0556-0.055 0.1111-1.111-0.3334-0.666m499 0c-0.055 0.055-0.111 1.111 0.334 0.666 0.055-0.055 0.111-1.111-0.334-0.666z" fill="#ff7757"/>
<path d="m15 190v1h30c-8.1277-3.411-21.186-1-30-1z" fill="#ffa995"/>
<path d="m45.667 190.33c-0.4445 0.445 0.6111 0.389 0.6666 0.334 0.4445-0.445-0.6111-0.389-0.6666-0.334m408 0c-0.445 0.445 0.611 0.389 0.666 0.334 0.445-0.445-0.611-0.389-0.666-0.334z" fill="#ff7757"/>
<path d="m455 190v1h26c-7.169-3.008-18.239-1-26-1z" fill="#ff8f6f"/>
<path d="m481 190v1c2.92 0.487 2.511-0.043 2 2h1c0.986-1.479 1-1.203 1-3h-4z" fill="#ffa995"/>
<path d="m0 191v224h500v-224c-20.099 14.103-37.747 33.403-56 49.831-43.589 39.231-86.72 79.147-131 117.59-15.225 13.219-30.065 26.955-45 40.501-4.129 3.745-12.072 13.947-18 13.947s-13.871-10.202-18-13.947c-14.935-13.546-29.775-27.282-45-40.501-44.277-38.443-87.412-78.363-131-117.59-18.253-16.428-35.901-35.728-56-49.831m16 0v1c20.814 15.858 39.547 35.323 59 52.831l106 95.338c20.773 18.696 40.929 41.056 64 56.831-2.854-21.196-10.537-43.171-18.255-63-12.462-32.019-26.594-65.108-52.835-88.675-42.772-38.415-101.81-54.325-157.91-54.325z" fill="#fff"/>
<path d="m47 191v1h6c-2.0521-0.874-3.7472-0.953-6-1z" fill="#ff8f6f"/>
<path d="m53 191v1c4.553 1.087 9.3342 1.632 14 2v-1l-14-2m385 1v1c3.422-0.028 6.637-0.375 10-1-3.16-0.972-6.667-0.068-10 0z" fill="#ff7757"/>
<path d="m448 191v1h5c-1.769-0.779-3.036-0.912-5-1z" fill="#ff8f6f"/>
<path d="m255 398c17.551-12.364 33.021-29.45 49-43.831l91-82 60-54c9.487-8.538 21.6-16.751 29-27.169-55.655 0-114.31 15.808-156.83 53.805-32.98 29.474-51.005 75.513-62.594 117.2-3.281 11.8-7.938 23.849-9.576 36z" fill="#fff"/>
<path d="m53.667 192.33c-0.4444 0.445 0.6111 0.389 0.6666 0.334 0.4445-0.445-0.6111-0.389-0.6666-0.334m391.33-0.333v1h3c-1.248-0.685-1.548-0.749-3-1z" fill="#fec8bb"/>
<path d="m3 193 1 1-1-1z" fill="#ff8f6f"/>
<path d="m18 193 1 1-1-1m43.667 0.333c-0.4445 0.445 0.6111 0.389 0.6666 0.334 0.4446-0.445-0.6111-0.389-0.6666-0.334z" fill="#fec8bb"/>
<path d="m432 193v1h5c-1.769-0.779-3.036-0.912-5-1z" fill="#ff7757"/>
<path d="m437 193 1 1-1-1z" fill="#ffa995"/>
<path d="m438.67 193.33c-0.445 0.445 0.611 0.389 0.666 0.334 0.445-0.445-0.611-0.389-0.666-0.334z" fill="#fec8bb"/>
<path d="m482 193 1 1-1-1z" fill="#ff8f6f"/>
<path d="m496 193 1 1-1-1z" fill="#ff7757"/>
<path d="m4 194 1 1-1-1z" fill="#ff8f6f"/>
<path d="m19 194 1 1-1-1m47.667 0.333c-0.4445 0.445 0.6111 0.389 0.6666 0.334 0.4445-0.445-0.6111-0.389-0.6666-0.334z" fill="#fec8bb"/>
<path d="m68 194 1 1-1-1z" fill="#ffa995"/>
<path d="m432.67 194.33c-0.445 0.445 0.611 0.389 0.666 0.334 0.445-0.445-0.611-0.389-0.666-0.334z" fill="#fec8bb"/>
<path d="m481 194 1 1-1-1z" fill="#ff7757"/>
<path d="m495 194 1 1-1-1z" fill="#ff8f6f"/>
<path d="m5 195 1 1-1-1m15 0 1 1-1-1z" fill="#ffa995"/>
<path d="m69.667 195.33c-0.4445 0.445 0.6111 0.389 0.6666 0.334 0.4445-0.445-0.6111-0.389-0.6666-0.334z" fill="#fec8bb"/>
<path d="m71.667 195.33c-0.4445 0.445 0.6111 0.389 0.6666 0.334 0.4445-0.445-0.6111-0.389-0.6666-0.334z" fill="#ffa995"/>
<path d="m427 195 1 1-1-1z" fill="#ff8f6f"/>
<path d="m428.67 195.33c-0.445 0.445 0.611 0.389 0.666 0.334 0.445-0.445-0.611-0.389-0.666-0.334z" fill="#fec8bb"/>
<path d="m480 195 1 1-1-1z" fill="#ff7757"/>
<path d="m494 195 1 1-1-1m-488 1 1 1-1-1m15 0 1 1-1-1z" fill="#ffa995"/>
<path d="m73 196v1h3c-1.2483-0.685-1.5485-0.749-3-1z" fill="#fec8bb"/>
<path d="m76.667 196.33c-0.4445 0.445 0.6111 0.389 0.6666 0.334 0.4445-0.445-0.6111-0.389-0.6666-0.334z" fill="#ffa995"/>
<path d="m78 196 1 1-1-1z" fill="#ff8f6f"/>
<path d="m422.67 196.33c-0.445 0.445 0.611 0.389 0.666 0.334 0.445-0.445-0.611-0.389-0.666-0.334z" fill="#ffa995"/>
<path d="m424 196v1h4c-1.506-0.683-2.315-0.826-4-1z" fill="#fec8bb"/>
<path d="m493 196 1 1-1-1z" fill="#ffa995"/>
<path d="m7 197 1 1-1-1z" fill="#fec8bb"/>
<path d="m22 197 1 1-1-1z" fill="#ff8f6f"/>
<path d="m79.667 197.33c-0.4445 0.445 0.6111 0.389 0.6666 0.334 0.4444-0.445-0.6111-0.389-0.6666-0.334z" fill="#fec8bb"/>
<path d="m81.667 197.33c-0.4445 0.445 0.6111 0.389 0.6666 0.334 0.4444-0.445-0.6111-0.389-0.6666-0.334z" fill="#ff8f6f"/>
<path d="m418.67 197.33c-0.445 0.445 0.611 0.389 0.666 0.334 0.445-0.445-0.611-0.389-0.666-0.334z" fill="#ffa995"/>
<path d="m420.67 197.33c-0.445 0.445 0.611 0.389 0.666 0.334 0.445-0.445-0.611-0.389-0.666-0.334m71.333-0.333 1 1-1-1m-408.33 1.333c-0.4445 0.445 0.611 0.389 0.6666 0.334 0.4444-0.445-0.6111-0.389-0.6666-0.334z" fill="#fec8bb"/>
<path d="m85.667 198.33c-0.4445 0.445 0.6111 0.389 0.6666 0.334 0.4444-0.445-0.6111-0.389-0.6666-0.334z" fill="#ff8f6f"/>
<path d="m413.67 198.33c-0.445 0.445 0.611 0.389 0.666 0.334 0.445-0.445-0.611-0.389-0.666-0.334z" fill="#ffa995"/>
<path d="m415 198v1h3c-1.248-0.685-1.548-0.749-3-1m61 0 1 1-1-1m-389 1 1 1-1-1z" fill="#fec8bb"/>
<path d="m88.667 199.33c-0.4445 0.445 0.6111 0.389 0.6666 0.334 0.4444-0.445-0.6111-0.389-0.6666-0.334z" fill="#ff7757"/>
<path d="m411.67 199.33c-0.445 0.445 0.611 0.389 0.666 0.334 0.445-0.445-0.611-0.389-0.666-0.334z" fill="#ffa995"/>
<path d="m475 199 1 1-1-1z" fill="#fec8bb"/>
<path d="m90 200v1h3c-1.2483-0.685-1.5485-0.749-3-1z" fill="#ff7757"/>
<path d="m408.67 200.33c-0.445 0.445 0.611 0.389 0.666 0.334 0.445-0.445-0.611-0.389-0.666-0.334z" fill="#ff8f6f"/>
<path d="m410 200 1 1-1-1m64 0 1 1-1-1z" fill="#ffa995"/>
<path d="m93 201v1h3c-1.2483-0.685-1.5485-0.749-3-1m311 0v1h3c-1.248-0.685-1.548-0.749-3-1z" fill="#ff7757"/>
<path d="m407 201 1 1-1-1z" fill="#fec8bb"/>
<path d="m473 201 1 1-1-1z" fill="#ffa995"/>
<path d="m13 202 1 1-1-1z" fill="#ff8f6f"/>
<path d="m28 202 1 1-1-1m66.667 0.333c-0.4445 0.445 0.6111 0.389 0.6666 0.334 0.4444-0.445-0.6111-0.389-0.6666-0.334z" fill="#fec8bb"/>
<path d="m96 202 1 1-1-1z" fill="#ffa995"/>
<path d="m472 202 1 1-1-1m14 0 1 1-1-1m-472 1 1 1-1-1z" fill="#ff8f6f"/>
<path d="m29 203 1 1-1-1m70 0 1 1-1-1z" fill="#fec8bb"/>
<path d="m400 203 1 1-1-1z" fill="#ff8f6f"/>
<path d="m471 203 1 1-1-1z" fill="#ff7757"/>
<path d="m485 203 1 1-1-1z" fill="#ff8f6f"/>
<path d="m15 204 1 1-1-1m15 0 1 1-1-1z" fill="#ffa995"/>
<path d="m101.67 204.33c-0.445 0.445 0.611 0.389 0.666 0.334 0.445-0.445-0.611-0.389-0.666-0.334z" fill="#fec8bb"/>
<path d="m397 204 1 1-1-1z" fill="#ffa995"/>
<path d="m398.67 204.33c-0.445 0.445 0.611 0.389 0.666 0.334 0.445-0.445-0.611-0.389-0.666-0.334z" fill="#fec8bb"/>
<path d="m470 204 1 1-1-1z" fill="#ff7757"/>
<path d="m484 204 1 1-1-1m-468 1 1 1-1-1m15 0 1 1-1-1z" fill="#ffa995"/>
<path d="m104.67 205.33c-0.445 0.445 0.611 0.389 0.666 0.334 0.445-0.445-0.611-0.389-0.666-0.334z" fill="#fec8bb"/>
<path d="m106 205 1 1-1-1z" fill="#ff7757"/>
<path d="m394 205v1h3c-1.248-0.685-1.548-0.749-3-1z" fill="#fec8bb"/>
<path d="m483 205 1 1-1-1z" fill="#ffa995"/>
<path d="m17 206 1 1-1-1z" fill="#fec8bb"/>
<path d="m32 206 1 1-1-1m75.667 0.333c-0.445 0.445 0.611 0.389 0.666 0.334 0.445-0.445-0.611-0.389-0.666-0.334z" fill="#ff8f6f"/>
<path d="m392.67 206.33c-0.445 0.445 0.611 0.389 0.666 0.334 0.445-0.445-0.611-0.389-0.666-0.334m89.333-0.333 1 1-1-1z" fill="#fec8bb"/>
<path d="m33 207 1 1-1-1z" fill="#ff7757"/>
<path d="m109 207v1h3c-1.248-0.685-1.549-0.749-3-1m280.67 0.333c-0.445 0.445 0.611 0.389 0.666 0.334 0.445-0.445-0.611-0.389-0.666-0.334z" fill="#ffa995"/>
<path d="m466 207 1 1-1-1z" fill="#fec8bb"/>
<path d="m112.67 208.33c-0.445 0.445 0.611 0.389 0.666 0.334 0.445-0.445-0.611-0.389-0.666-0.334m274 0c-0.445 0.445 0.611 0.389 0.666 0.334 0.445-0.445-0.611-0.389-0.666-0.334z" fill="#ff8f6f"/>
<path d="m388 208 1 1-1-1m77 0 1 1-1-1z" fill="#fec8bb"/>
<path d="m114.67 209.33c-0.445 0.445 0.611 0.389 0.666 0.334 0.445-0.445-0.611-0.389-0.666-0.334m270 0c-0.445 0.445 0.611 0.389 0.666 0.334 0.445-0.445-0.611-0.389-0.666-0.334z" fill="#ff8f6f"/>
<path d="m464 209 1 1-1-1m-348 1 1 1-1-1z" fill="#ffa995"/>
<path d="m382.67 210.33c-0.445 0.445 0.611 0.389 0.666 0.334 0.445-0.445-0.611-0.389-0.666-0.334z" fill="#ff8f6f"/>
<path d="m463 210 1 1-1-1z" fill="#ffa995"/>
<path d="m23 211 1 1-1-1z" fill="#ff8f6f"/>
<path d="m38 211 1 1-1-1m80 0 1 1-1-1z" fill="#fec8bb"/>
<path d="m381 211 1 1-1-1m81 0 1 1-1-1m14 0 1 1-1-1m-452 1 1 1-1-1z" fill="#ff8f6f"/>
<path d="m39 212 1 1-1-1m81 0 1 1-1-1z" fill="#fec8bb"/>
<path d="m379 212 1 1-1-1z" fill="#ff8f6f"/>
<path d="m461 212 1 1-1-1z" fill="#ff7757"/>
<path d="m475 212 1 1-1-1z" fill="#ff8f6f"/>
<path d="m25 213 1 1-1-1m15 0 1 1-1-1z" fill="#ffa995"/>
<path d="m121.67 213.33c-0.445 0.445 0.611 0.389 0.666 0.334 0.445-0.445-0.611-0.389-0.666-0.334z" fill="#fec8bb"/>
<path d="m123 213 1 1-1-1z" fill="#ff8f6f"/>
<path d="m377 213 1 1-1-1z" fill="#ffa995"/>
<path d="m460 213 1 1-1-1z" fill="#ff7757"/>
<path d="m474 213 1 1-1-1m-448 1 1 1-1-1m15 0 1 1-1-1z" fill="#ffa995"/>
<path d="m124.67 214.33c-0.445 0.445 0.611 0.389 0.666 0.334 0.445-0.445-0.611-0.389-0.666-0.334z" fill="#fec8bb"/>
<path d="m126 214 1 1-1-1z" fill="#ff8f6f"/>
<path d="m374.67 214.33c-0.445 0.445 0.611 0.389 0.666 0.334 0.445-0.445-0.611-0.389-0.666-0.334z" fill="#fec8bb"/>
<path d="m473 214 1 1-1-1z" fill="#ffa995"/>
<path d="m27 215 1 1-1-1z" fill="#fec8bb"/>
<path d="m42 215 1 1-1-1z" fill="#ff8f6f"/>
<path d="m127 215 1 1-1-1z" fill="#fec8bb"/>
<path d="m128 215 1 1-1-1z" fill="#ff8f6f"/>
<path d="m372.67 215.33c-0.445 0.445 0.611 0.389 0.666 0.334 0.445-0.445-0.611-0.389-0.666-0.334m99.333-0.333 1 1-1-1z" fill="#fec8bb"/>
<path d="m129.67 216.33c-0.445 0.445 0.611 0.389 0.666 0.334 0.445-0.445-0.611-0.389-0.666-0.334z" fill="#ffa995"/>
<path d="m370.67 216.33c-0.445 0.445 0.611 0.389 0.666 0.334 0.445-0.445-0.611-0.389-0.666-0.334m85.333-0.333 1 1-1-1z" fill="#fec8bb"/>
<path d="m131.67 217.33c-0.445 0.445 0.611 0.389 0.666 0.334 0.445-0.445-0.611-0.389-0.666-0.334z" fill="#ff8f6f"/>
<path d="m367 217v1h3c-1.248-0.685-1.548-0.749-3-1z" fill="#ffa995"/>
<path d="m455 217 1 1-1-1z" fill="#fec8bb"/>
<path d="m133 218 1 1-1-1z" fill="#ffa995"/>
<path d="m365.67 218.33c-0.445 0.445 0.611 0.389 0.666 0.334 0.445-0.445-0.611-0.389-0.666-0.334z" fill="#ff8f6f"/>
<path d="m454 218 1 1-1-1m-319 1 1 1-1-1z" fill="#ffa995"/>
<path d="m364 219 1 1-1-1z" fill="#ff7757"/>
<path d="m453 219 1 1-1-1z" fill="#ffa995"/>
<path d="m33 220 1 1-1-1z" fill="#ff8f6f"/>
<path d="m48 220 1 1-1-1m88 0 1 1-1-1z" fill="#fec8bb"/>
<path d="m362.67 220.33c-0.445 0.445 0.611 0.389 0.666 0.334 0.445-0.445-0.611-0.389-0.666-0.334m89.333-0.333 1 1-1-1m14 0 1 1-1-1m-432 1 1 1-1-1z" fill="#ff8f6f"/>
<path d="m49 221 1 1-1-1m89 0 1 1-1-1z" fill="#fec8bb"/>
<path d="m361 221 1 1-1-1m90 0 1 1-1-1m14 0 1 1-1-1z" fill="#ff8f6f"/>
<path d="m35 222 1 1-1-1m15 0 1 1-1-1z" fill="#ffa995"/>
<path d="m140 222 1 1-1-1z" fill="#fec8bb"/>
<path d="m359 222 1 1-1-1z" fill="#ffa995"/>
<path d="m450 222 1 1-1-1z" fill="#ff7757"/>
<path d="m464 222 1 1-1-1z" fill="#ffa995"/>
<path d="m36 223 1 1-1-1z" fill="#fec8bb"/>
<path d="m51 223 1 1-1-1z" fill="#ffa995"/>
<path d="m142 223 1 1-1-1z" fill="#fec8bb"/>
<path d="m143 223 1 1-1-1z" fill="#ff7757"/>
<path d="m357 223 1 1-1-1z" fill="#ffa995"/>
<path d="m463 223 1 1-1-1m-426 1 1 1-1-1z" fill="#fec8bb"/>
<path d="m52 224 1 1-1-1z" fill="#ff8f6f"/>
<path d="m144 224 1 1-1-1z" fill="#fec8bb"/>
<path d="m355 224 1 1-1-1z" fill="#ffa995"/>
<path d="m462 224 1 1-1-1z" fill="#fec8bb"/>
<path d="m53 225 1 1-1-1z" fill="#ff7757"/>
<path d="m146 225 1 1-1-1z" fill="#ff8f6f"/>
<path d="m354 225 1 1-1-1z" fill="#ffa995"/>
<path d="m446 225 1 1-1-1z" fill="#fec8bb"/>
<path d="m147.67 226.33c-0.445 0.445 0.611 0.389 0.666 0.334 0.445-0.445-0.611-0.389-0.666-0.334z" fill="#ff8f6f"/>
<path d="m352.67 226.33c-0.445 0.445 0.611 0.389 0.666 0.334 0.445-0.445-0.611-0.389-0.666-0.334m92.333-0.333 1 1-1-1z" fill="#fec8bb"/>
<path d="m149.67 227.33c-0.445 0.445 0.611 0.389 0.666 0.334 0.445-0.445-0.611-0.389-0.666-0.334z" fill="#ff8f6f"/>
<path d="m350.67 227.33c-0.445 0.445 0.611 0.389 0.666 0.334 0.445-0.445-0.611-0.389-0.666-0.334z" fill="#fec8bb"/>
<path d="m444 227 1 1-1-1z" fill="#ffa995"/>
<path d="m42 228 1 1-1-1m109.67 0.333c-0.445 0.445 0.611 0.389 0.666 0.334 0.445-0.445-0.611-0.389-0.666-0.334z" fill="#ff7757"/>
<path d="m348 228 1 1-1-1z" fill="#ff8f6f"/>
<path d="m349 228 1 1-1-1z" fill="#fec8bb"/>
<path d="m443 228 1 1-1-1z" fill="#ffa995"/>
<path d="m457 228 1 1-1-1z" fill="#ff7757"/>
<path d="m43 229 1 1-1-1z" fill="#ff8f6f"/>
<path d="m58 229 1 1-1-1z" fill="#fec8bb"/>
<path d="m153 229 1 1-1-1z" fill="#ffa995"/>
<path d="m347 229 1 1-1-1z" fill="#fec8bb"/>
<path d="m442 229 1 1-1-1m14 0 1 1-1-1m-412 1 1 1-1-1z" fill="#ff8f6f"/>
<path d="m59 230 1 1-1-1z" fill="#fec8bb"/>
<path d="m154 230 1 1-1-1z" fill="#ffa995"/>
<path d="m344.67 230.33c-0.445 0.445 0.611 0.389 0.666 0.334 0.445-0.445-0.611-0.389-0.666-0.334m96.333-0.333 1 1-1-1z" fill="#ff7757"/>
<path d="m455 230 1 1-1-1z" fill="#ff8f6f"/>
<path d="m45 231 1 1-1-1m15 0 1 1-1-1m96 0 1 1-1-1z" fill="#ffa995"/>
<path d="m440 231 1 1-1-1z" fill="#ff7757"/>
<path d="m454 231 1 1-1-1z" fill="#ffa995"/>
<path d="m46 232 1 1-1-1z" fill="#fec8bb"/>
<path d="m61 232 1 1-1-1m96 0 1 1-1-1z" fill="#ffa995"/>
<path d="m343 232 1 1-1-1m110 0 1 1-1-1m-406 1 1 1-1-1z" fill="#fec8bb"/>
<path d="m62 233 1 1-1-1z" fill="#ff8f6f"/>
<path d="m158 233 1 1-1-1z" fill="#ffa995"/>
<path d="m452 233 1 1-1-1z" fill="#fec8bb"/>
<path d="m63 234 1 1-1-1z" fill="#ff7757"/>
<path d="m160 234 1 1-1-1z" fill="#ffa995"/>
<path d="m436 234 1 1-1-1z" fill="#fec8bb"/>
<path d="m161 235 1 1-1-1z" fill="#ffa995"/>
<path d="m339 235 1 1-1-1m96 0 1 1-1-1z" fill="#fec8bb"/>
<path d="m162 236 1 1-1-1z" fill="#ffa995"/>
<path d="m338 236 1 1-1-1z" fill="#fec8bb"/>
<path d="m434 236 1 1-1-1z" fill="#ffa995"/>
<path d="m52 237 1 1-1-1z" fill="#ff7757"/>
<path d="m163 237 1 1-1-1z" fill="#ffa995"/>
<path d="m336 237 1 1-1-1z" fill="#ff8f6f"/>
<path d="m433 237 1 1-1-1z" fill="#ffa995"/>
<path d="m447 237 1 1-1-1z" fill="#ff7757"/>
<path d="m53 238 1 1-1-1z" fill="#ff8f6f"/>
<path d="m68 238 1 1-1-1m96 0 1 1-1-1z" fill="#fec8bb"/>
<path d="m334.67 238.33c-0.445 0.445 0.611 0.389 0.666 0.334 0.445-0.445-0.611-0.389-0.666-0.334z" fill="#ffa995"/>
<path d="m432 238 1 1-1-1m14 0 1 1-1-1z" fill="#ff8f6f"/>
<path d="m54 239 1 1-1-1z" fill="#ffa995"/>
<path d="m69 239 1 1-1-1z" fill="#fec8bb"/>
<path d="m166 239 1 1-1-1z" fill="#ffa995"/>
<path d="m333 239 1 1-1-1z" fill="#ff8f6f"/>
<path d="m431 239 1 1-1-1z" fill="#ff7757"/>
<path d="m445 239 1 1-1-1m-390 1 1 1-1-1m15 0 1 1-1-1z" fill="#ffa995"/>
<path d="m167 240 1 1-1-1z" fill="#fec8bb"/>
<path d="m332 240 1 1-1-1z" fill="#ff8f6f"/>
<path d="m430 240 1 1-1-1z" fill="#ff7757"/>
<path d="m444 240 1 1-1-1z" fill="#ffa995"/>
<path d="m56 241 1 1-1-1z" fill="#fec8bb"/>
<path d="m71 241 1 1-1-1z" fill="#ffa995"/>
<path d="m168 241 1 1-1-1z" fill="#fec8bb"/>
<path d="m331 241 1 1-1-1z" fill="#ff8f6f"/>
<path d="m443 241 1 1-1-1m-386 1 1 1-1-1z" fill="#fec8bb"/>
<path d="m72 242 1 1-1-1z" fill="#ff8f6f"/>
<path d="m170 242 1 1-1-1z" fill="#fec8bb"/>
<path d="m329 242 1 1-1-1z" fill="#ff8f6f"/>
<path d="m442 242 1 1-1-1z" fill="#fec8bb"/>
<path d="m73 243 1 1-1-1z" fill="#ff7757"/>
<path d="m171 243 1 1-1-1z" fill="#fec8bb"/>
<path d="m328 243 1 1-1-1z" fill="#ff8f6f"/>
<path d="m426 243 1 1-1-1z" fill="#fec8bb"/>
<path d="m327 244 1 1-1-1z" fill="#ffa995"/>
<path d="m425 244 1 1-1-1z" fill="#fec8bb"/>
<path d="m174 245 1 1-1-1z" fill="#ffa995"/>
<path d="m325 245 1 1-1-1z" fill="#ff7757"/>
<path d="m326 245 1 1-1-1z" fill="#fec8bb"/>
<path d="m424 245 1 1-1-1z" fill="#ffa995"/>
<path d="m62 246 1 1-1-1z" fill="#ff7757"/>
<path d="m175 246 1 1-1-1m248 0 1 1-1-1z" fill="#ffa995"/>
<path d="m437 246 1 1-1-1z" fill="#ff7757"/>
<path d="m63 247 1 1-1-1z" fill="#ff8f6f"/>
<path d="m78 247 1 1-1-1z" fill="#fec8bb"/>
<path d="m176 247 1 1-1-1z" fill="#ff7757"/>
<path d="m324 247 1 1-1-1z" fill="#fec8bb"/>
<path d="m422 247 1 1-1-1m14 0 1 1-1-1z" fill="#ff8f6f"/>
<path d="m64 248 1 1-1-1z" fill="#ffa995"/>
<path d="m79 248 1 1-1-1z" fill="#fec8bb"/>
<path d="m323 248 1 1-1-1z" fill="#ffa995"/>
<path d="m421 248 1 1-1-1z" fill="#ff7757"/>
<path d="m435 248 1 1-1-1m-370 1 1 1-1-1m15 0 1 1-1-1z" fill="#ffa995"/>
<path d="m177 249 1 1-1-1z" fill="#fec8bb"/>
<path d="m420 249 1 1-1-1z" fill="#ff7757"/>
<path d="m434 249 1 1-1-1z" fill="#ffa995"/>
<path d="m66 250 1 1-1-1z" fill="#fec8bb"/>
<path d="m81 250 1 1-1-1m97 0 1 1-1-1z" fill="#ffa995"/>
<path d="m433 250 1 1-1-1m-366 1 1 1-1-1z" fill="#fec8bb"/>
<path d="m82 251 1 1-1-1z" fill="#ff8f6f"/>
<path d="m179 251 1 1-1-1z" fill="#ffa995"/>
<path d="m432 251 1 1-1-1z" fill="#fec8bb"/>
<path d="m83 252 1 1-1-1z" fill="#ff8f6f"/>
<path d="m180 252 1 1-1-1z" fill="#fec8bb"/>
<path d="m319 252 1 1-1-1z" fill="#ff8f6f"/>
<path d="m416 252 1 1-1-1m-235 1 1 1-1-1z" fill="#fec8bb"/>
<path d="m318 253 1 1-1-1z" fill="#ff8f6f"/>
<path d="m415 253 1 1-1-1m-233 1 1 1-1-1z" fill="#fec8bb"/>
<path d="m317 254 1 1-1-1z" fill="#ff8f6f"/>
<path d="m414 254 1 1-1-1z" fill="#ffa995"/>
<path d="m72 255 1 1-1-1z" fill="#ff7757"/>
<path d="m183 255 1 1-1-1z" fill="#fec8bb"/>
<path d="m184.33 255.67c-0.055 0.055-0.111 1.111 0.334 0.666 0.055-0.055 0.111-1.111-0.334-0.666m131.67-0.667 1 1-1-1z" fill="#ff8f6f"/>
<path d="m413 255 1 1-1-1z" fill="#ffa995"/>
<path d="m427 255 1 1-1-1z" fill="#ff7757"/>
<path d="m73 256 1 1-1-1z" fill="#ff8f6f"/>
<path d="m88 256 1 1-1-1m228 0 1 1-1-1z" fill="#fec8bb"/>
<path d="m412 256 1 1-1-1m14 0 1 1-1-1z" fill="#ff8f6f"/>
<path d="m74 257 1 1-1-1z" fill="#ffa995"/>
<path d="m89 257 1 1-1-1z" fill="#fec8bb"/>
<path d="m315 257 1 1-1-1z" fill="#ffa995"/>
<path d="m411 257 1 1-1-1z" fill="#ff8f6f"/>
<path d="m425 257 1 1-1-1m-350 1 1 1-1-1m15 0 1 1-1-1z" fill="#ffa995"/>
<path d="m185 258 1 1-1-1z" fill="#fec8bb"/>
<path d="m314 258 1 1-1-1z" fill="#ff8f6f"/>
<path d="m410 258 1 1-1-1z" fill="#ff7757"/>
<path d="m424 258 1 1-1-1z" fill="#ffa995"/>
<path d="m76 259 1 1-1-1z" fill="#fec8bb"/>
<path d="m91 259 1 1-1-1z" fill="#ffa995"/>
<path d="m186 259 1 1-1-1z" fill="#fec8bb"/>
<path d="m313 259 1 1-1-1z" fill="#ff8f6f"/>
<path d="m423 259 1 1-1-1m-346 1 1 1-1-1z" fill="#fec8bb"/>
<path d="m92 260 1 1-1-1z" fill="#ff8f6f"/>
<path d="m187 260 1 1-1-1z" fill="#ffa995"/>
<path d="m312 260 1 1-1-1z" fill="#ff8f6f"/>
<path d="m422 260 1 1-1-1z" fill="#fec8bb"/>
<path d="m93 261 1 1-1-1z" fill="#ff8f6f"/>
<path d="m188 261 1 1-1-1z" fill="#fec8bb"/>
<path d="m311 261 1 1-1-1z" fill="#ff8f6f"/>
<path d="m406 261 1 1-1-1m-217 1 1 1-1-1z" fill="#fec8bb"/>
<path d="m310 262 1 1-1-1z" fill="#ff8f6f"/>
<path d="m405 262 1 1-1-1z" fill="#fec8bb"/>
<path d="m309.33 263.67c-0.055 0.055-0.111 1.111 0.334 0.666 0.055-0.055 0.111-1.111-0.334-0.666m94.667-0.667 1 1-1-1z" fill="#ffa995"/>
<path d="m82 264 1 1-1-1z" fill="#ff8f6f"/>
<path d="m403 264 1 1-1-1z" fill="#ffa995"/>
<path d="m417 264 1 1-1-1m-334 1 1 1-1-1z" fill="#ff8f6f"/>
<path d="m98 265 1 1-1-1m93 0 1 1-1-1z" fill="#fec8bb"/>
<path d="m308 265 1 1-1-1m94 0 1 1-1-1m14 0 1 1-1-1z" fill="#ff8f6f"/>
<path d="m84 266 1 1-1-1z" fill="#ffa995"/>
<path d="m99 266 1 1-1-1z" fill="#fec8bb"/>
<path d="m192 266 1 1-1-1z" fill="#ffa995"/>
<path d="m401 266 1 1-1-1z" fill="#ff8f6f"/>
<path d="m415 266 1 1-1-1m-330 1 1 1-1-1m15 0 1 1-1-1m93 0 1 1-1-1z" fill="#ffa995"/>
<path d="m400 267 1 1-1-1z" fill="#ff7757"/>
<path d="m414 267 1 1-1-1z" fill="#ffa995"/>
<path d="m86 268 1 1-1-1z" fill="#fec8bb"/>
<path d="m101 268 1 1-1-1m93 0 1 1-1-1z" fill="#ffa995"/>
<path d="m305 268 1 1-1-1z" fill="#ff8f6f"/>
<path d="m413 268 1 1-1-1z" fill="#fec8bb"/>
<path d="m102 269 1 1-1-1m93 0 1 1-1-1m-92 1 1 1-1-1z" fill="#ff8f6f"/>
<path d="m195 270 1 1-1-1z" fill="#fec8bb"/>
<path d="m304 270 1 1-1-1z" fill="#ff8f6f"/>
<path d="m396 270 1 1-1-1m-199.67 1.667c-0.055 0.055-0.111 1.111 0.334 0.666 0.055-0.055 0.111-1.111-0.334-0.666m198.67-0.667 1 1-1-1z" fill="#fec8bb"/>
<path d="m303 272 1 1-1-1z" fill="#ff8f6f"/>
<path d="m394 272 1 1-1-1z" fill="#ffa995"/>
<path d="m92 273 1 1-1-1z" fill="#ff8f6f"/>
<path d="m197 273 1 1-1-1m196 0 1 1-1-1z" fill="#ffa995"/>
<path d="m407 273 1 1-1-1m-314 1 1 1-1-1z" fill="#ff8f6f"/>
<path d="m108 274 1 1-1-1z" fill="#fec8bb"/>
<path d="m198 274 1 1-1-1z" fill="#ffa995"/>
<path d="m392 274 1 1-1-1m14 0 1 1-1-1z" fill="#ff8f6f"/>
<path d="m94 275 1 1-1-1z" fill="#ffa995"/>
<path d="m109 275 1 1-1-1z" fill="#fec8bb"/>
<path d="m301 275 1 1-1-1m90 0 1 1-1-1z" fill="#ff8f6f"/>
<path d="m405 275 1 1-1-1m-310 1 1 1-1-1m15 0 1 1-1-1m89 0 1 1-1-1z" fill="#ffa995"/>
<path d="m390 276 1 1-1-1z" fill="#ff7757"/>
<path d="m404 276 1 1-1-1z" fill="#ffa995"/>
<path d="m96 277 1 1-1-1z" fill="#fec8bb"/>
<path d="m111 277 1 1-1-1z" fill="#ffa995"/>
<path d="m300 277 1 1-1-1z" fill="#ff8f6f"/>
<path d="m403 277 1 1-1-1z" fill="#fec8bb"/>
<path d="m112 278 1 1-1-1z" fill="#ff8f6f"/>
<path d="m200 278 1 1-1-1z" fill="#ffa995"/>
<path d="m300 278 1 1-1-1z" fill="#fec8bb"/>
<path d="m113 279 1 1-1-1m88 0 1 1-1-1z" fill="#ff8f6f"/>
<path d="m299 279 1 1-1-1m87 0 1 1-1-1m-87.667 1.667c-0.055 0.055-0.111 1.111 0.334 0.666 0.055-0.055 0.111-1.111-0.334-0.666m86.667-0.667 1 1-1-1z" fill="#fec8bb"/>
<path d="m101 281 1 1-1-1z" fill="#ff7757"/>
<path d="m202 281 1 1-1-1z" fill="#ff8f6f"/>
<path d="m384 281 1 1-1-1z" fill="#ffa995"/>
<path d="m102 282 1 1-1-1m101 0 1 1-1-1z" fill="#ff8f6f"/>
<path d="m297 282 1 1-1-1z" fill="#fec8bb"/>
<path d="m383 282 1 1-1-1z" fill="#ffa995"/>
<path d="m397 282 1 1-1-1m-294 1 1 1-1-1z" fill="#ff8f6f"/>
<path d="m118 283 1 1-1-1z" fill="#fec8bb"/>
<path d="m204.33 283.67c-0.055 0.055-0.111 1.111 0.334 0.666 0.055-0.055 0.111-1.111-0.334-0.666z" fill="#ff8f6f"/>
<path d="m296.33 283.67c-0.055 0.055-0.111 1.111 0.334 0.666 0.055-0.055 0.111-1.111-0.334-0.666z" fill="#fec8bb"/>
<path d="m382 283 1 1-1-1m14 0 1 1-1-1z" fill="#ff8f6f"/>
<path d="m104 284 1 1-1-1z" fill="#ffa995"/>
<path d="m119 284 1 1-1-1z" fill="#fec8bb"/>
<path d="m381 284 1 1-1-1z" fill="#ff8f6f"/>
<path d="m395 284 1 1-1-1z" fill="#ffa995"/>
<path d="m105 285 1 1-1-1z" fill="#fec8bb"/>
<path d="m120 285 1 1-1-1m85.333 0.667c-0.055 0.055-0.111 1.111 0.334 0.666 0.055-0.055 0.111-1.111-0.334-0.666m89.667-0.667 1 1-1-1z" fill="#ffa995"/>
<path d="m380 285 1 1-1-1z" fill="#ff7757"/>
<path d="m394 285 1 1-1-1z" fill="#ffa995"/>
<path d="m106 286 1 1-1-1z" fill="#fec8bb"/>
<path d="m121 286 1 1-1-1z" fill="#ffa995"/>
<path d="m393 286 1 1-1-1z" fill="#fec8bb"/>
<path d="m122 287 1 1-1-1z" fill="#ff8f6f"/>
<path d="m206 287 1 1-1-1z" fill="#ff7757"/>
<path d="m294 287 1 1-1-1z" fill="#ffa995"/>
<path d="m123 288 1 1-1-1m170 0 1 1-1-1z" fill="#ff8f6f"/>
<path d="m207.33 289.67c-0.055 0.055-0.111 1.111 0.334 0.666 0.055-0.055 0.111-1.111-0.334-0.666m167.67-0.667 1 1-1-1z" fill="#fec8bb"/>
<path d="m111 290 1 1-1-1z" fill="#ff7757"/>
<path d="m292 290 1 1-1-1m82 0 1 1-1-1z" fill="#ffa995"/>
<path d="m112 291 1 1-1-1z" fill="#ff8f6f"/>
<path d="m208.33 291.67c-0.055 0.055-0.111 1.111 0.334 0.666 0.055-0.055 0.111-1.111-0.334-0.666z" fill="#fec8bb"/>
<path d="m291.33 291.67c-0.055 0.055-0.111 1.111 0.334 0.666 0.055-0.055 0.111-1.111-0.334-0.666m81.667-0.667 1 1-1-1z" fill="#ffa995"/>
<path d="m387 291 1 1-1-1z" fill="#ff8f6f"/>
<path d="m113 292 1 1-1-1z" fill="#ffa995"/>
<path d="m128 292 1 1-1-1z" fill="#fec8bb"/>
<path d="m372 292 1 1-1-1m14 0 1 1-1-1z" fill="#ff8f6f"/>
<path d="m114 293 1 1-1-1z" fill="#ffa995"/>
<path d="m129 293 1 1-1-1z" fill="#fec8bb"/>
<path d="m210 293 1 4h1c-0.564-1.752-0.919-2.542-2-4z" fill="#ff7757"/>
<path d="m290.33 293.67c-0.055 0.055-0.111 1.111 0.334 0.666 0.055-0.055 0.111-1.111-0.334-0.666z" fill="#ffa995"/>
<path d="m371 293 1 1-1-1z" fill="#ff8f6f"/>
<path d="m385 293 1 1-1-1z" fill="#ffa995"/>
<path d="m115 294 1 1-1-1z" fill="#fec8bb"/>
<path d="m130 294 1 1-1-1z" fill="#ffa995"/>
<path d="m370 294 1 1-1-1z" fill="#ff7757"/>
<path d="m384 294 1 1-1-1m-268 1 1 1-1-1z" fill="#fec8bb"/>
<path d="m131 295 1 1-1-1z" fill="#ffa995"/>
<path d="m210 295 1 1-1-1z" fill="#fec8bb"/>
<path d="m289.33 295.67c-0.055 0.055-0.111 1.111 0.334 0.666 0.055-0.055 0.111-1.111-0.334-0.666z" fill="#ffa995"/>
<path d="m383 295 1 1-1-1z" fill="#fec8bb"/>
<path d="m132 296 1 1-1-1m1 1 1 1-1-1z" fill="#ff8f6f"/>
<path d="m211 297 1 1-1-1z" fill="#ffa995"/>
<path d="m288 297 1 1-1-1z" fill="#ff8f6f"/>
<path d="m366 297 1 1-1-1m-77.667 1.667c-0.055 0.055-0.111 1.111 0.334 0.666 0.055-0.055 0.111-1.111-0.334-0.666m76.667-0.667 1 1-1-1z" fill="#fec8bb"/>
<path d="m121 299 1 1-1-1z" fill="#ff7757"/>
<path d="m212 299 1 1-1-1m152 0 1 1-1-1z" fill="#ffa995"/>
<path d="m122 300 1 1-1-1z" fill="#ff8f6f"/>
<path d="m213.33 300.67c-0.055 0.055-0.111 1.111 0.334 0.666 0.055-0.055 0.111-1.111-0.334-0.666z" fill="#ffa995"/>
<path d="m287.33 300.67c-0.055 0.055-0.111 1.111 0.334 0.666 0.055-0.055 0.111-1.111-0.334-0.666z" fill="#fec8bb"/>
<path d="m363 300 1 1-1-1z" fill="#ffa995"/>
<path d="m377 300 1 1-1-1z" fill="#ff8f6f"/>
<path d="m123 301 1 1-1-1z" fill="#ffa995"/>
<path d="m138 301 1 1-1-1z" fill="#fec8bb"/>
<path d="m362 301 1 1-1-1m14 0 1 1-1-1z" fill="#ff8f6f"/>
<path d="m124 302 1 1-1-1m15 0 1 1-1-1z" fill="#fec8bb"/>
<path d="m214 302v3h1c-0.251-1.452-0.315-1.752-1-3z" fill="#ffa995"/>
<path d="m286.33 302.67c-0.055 0.055-0.111 1.111 0.334 0.666 0.055-0.055 0.111-1.111-0.334-0.666z" fill="#fec8bb"/>
<path d="m361 302 1 1-1-1z" fill="#ff8f6f"/>
<path d="m375 302 1 1-1-1z" fill="#ffa995"/>
<path d="m125 303 1 1-1-1z" fill="#fec8bb"/>
<path d="m140 303 1 1-1-1z" fill="#ffa995"/>
<path d="m360 303 1 1-1-1z" fill="#ff7757"/>
<path d="m374 303 1 1-1-1z" fill="#fec8bb"/>
<path d="m141 304 1 1-1-1z" fill="#ffa995"/>
<path d="m142 305 1 1-1-1z" fill="#ff8f6f"/>
<path d="m215.33 305.67c-0.055 0.055-0.111 1.111 0.334 0.666 0.055-0.055 0.111-1.111-0.334-0.666z" fill="#ffa995"/>
<path d="m143 306 1 1-1-1m73 1 1 1-1-1z" fill="#ff8f6f"/>
<path d="m284 307 1 1-1-1z" fill="#ffa995"/>
<path d="m355 307 1 1-1-1z" fill="#fec8bb"/>
<path d="m131 308 1 1-1-1z" fill="#ff8f6f"/>
<path d="m216.33 308.67c-0.055 0.055-0.111 1.111 0.334 0.666 0.055-0.055 0.111-1.111-0.334-0.666z" fill="#fec8bb"/>
<path d="m354 308 1 1-1-1z" fill="#ffa995"/>
<path d="m368 308 1 1-1-1z" fill="#ff8f6f"/>
<path d="m132 309 1 1-1-1z" fill="#ff7757"/>
<path d="m283 309 1 1-1-1m70 0 1 1-1-1m-220 1 1 1-1-1z" fill="#ffa995"/>
<path d="m217.33 310.67c-0.055 0.055-0.111 1.111 0.334 0.666 0.055-0.055 0.111-1.111-0.334-0.666z" fill="#fec8bb"/>
<path d="m352 310 1 1-1-1z" fill="#ff8f6f"/>
<path d="m366 310 1 1-1-1m-232 1 1 1-1-1z" fill="#ffa995"/>
<path d="m149 311 1 1-1-1z" fill="#fec8bb"/>
<path d="m282 311 1 1-1-1m69 0 1 1-1-1z" fill="#ff8f6f"/>
<path d="m365 311 1 1-1-1z" fill="#ffa995"/>
<path d="m135 312 1 1-1-1z" fill="#fec8bb"/>
<path d="m150 312 1 1-1-1z" fill="#ffa995"/>
<path d="m218.33 312.67c-0.055 0.055-0.111 1.111 0.334 0.666 0.055-0.055 0.111-1.111-0.334-0.666z" fill="#fec8bb"/>
<path d="m281.33 312.67c-0.055 0.055-0.111 1.111 0.334 0.666 0.055-0.055 0.111-1.111-0.334-0.666z" fill="#ff8f6f"/>
<path d="m350 312 1 1-1-1z" fill="#ff7757"/>
<path d="m151 313 1 1-1-1z" fill="#ffa995"/>
<path d="m152 314 1 1-1-1z" fill="#ff8f6f"/>
<path d="m220.33 314.67c-0.055 0.055-0.111 1.111 0.334 0.666 0.055-0.055 0.111-1.111-0.334-0.666z" fill="#ff7757"/>
<path d="m280.33 314.67c-0.055 0.055-0.111 1.111 0.334 0.666 0.055-0.055 0.111-1.111-0.334-0.666z" fill="#ffa995"/>
<path d="m153 315 1 1-1-1z" fill="#ff8f6f"/>
<path d="m140 316 1 1-1-1z" fill="#ff7757"/>
<path d="m220 316 1 1-1-1z" fill="#ffa995"/>
<path d="m279 316 1 1-1-1z" fill="#ff8f6f"/>
<path d="m345 316 1 1-1-1z" fill="#fec8bb"/>
<path d="m141 317 1 1-1-1z" fill="#ff8f6f"/>
<path d="m221.33 317.67c-0.055 0.055-0.111 1.111 0.334 0.666 0.055-0.055 0.111-1.111-0.334-0.666z" fill="#ff7757"/>
<path d="m279.33 317.67c-0.055 0.055-0.111 1.111 0.334 0.666 0.055-0.055 0.111-1.111-0.334-0.666z" fill="#fec8bb"/>
<path d="m344 317 1 1-1-1z" fill="#ffa995"/>
<path d="m358 317 1 1-1-1z" fill="#ff7757"/>
<path d="m142 318 1 1-1-1m201 0 1 1-1-1z" fill="#ffa995"/>
<path d="m357 318 1 1-1-1m-214 1 1 1-1-1z" fill="#ff8f6f"/>
<path d="m221 319 1 1-1-1z" fill="#ffa995"/>
<path d="m342 319 1 1-1-1z" fill="#ff8f6f"/>
<path d="m356 319 1 1-1-1m-212 1 1 1-1-1z" fill="#ffa995"/>
<path d="m159 320 1 1-1-1z" fill="#fec8bb"/>
<path d="m222.33 320.67c-0.055 0.055-0.111 1.111 0.334 0.666 0.055-0.055 0.111-1.111-0.334-0.666z" fill="#ff8f6f"/>
<path d="m278.33 320.67c-0.055 0.055-0.111 1.111 0.334 0.666 0.055-0.055 0.111-1.111-0.334-0.666z" fill="#fec8bb"/>
<path d="m341 320 1 1-1-1z" fill="#ff8f6f"/>
<path d="m355 320 1 1-1-1z" fill="#ffa995"/>
<path d="m145 321 1 1-1-1z" fill="#fec8bb"/>
<path d="m160 321 1 1-1-1z" fill="#ffa995"/>
<path d="m340 321 1 1-1-1z" fill="#ff7757"/>
<path d="m354 321 1 1-1-1z" fill="#fec8bb"/>
<path d="m161 322 1 1-1-1z" fill="#ffa995"/>
<path d="m223 322v3h1c-0.251-1.452-0.315-1.752-1-3z" fill="#ff8f6f"/>
<path d="m277 322v3h1c-0.251-1.452-0.315-1.752-1-3z" fill="#fec8bb"/>
<path d="m162 323 1 1-1-1m1 1 1 1-1-1z" fill="#ff8f6f"/>
<path d="m224 325v3h1c-0.251-1.452-0.315-1.752-1-3m52 0 1 1-1-1z" fill="#ffa995"/>
<path d="m335 325 1 1-1-1z" fill="#fec8bb"/>
<path d="m275.33 326.67c-0.055 0.055-0.111 1.111 0.334 0.666 0.055-0.055 0.111-1.111-0.334-0.666z" fill="#ff7757"/>
<path d="m334 326 1 1-1-1m-182 1 1 1-1-1m181 0 1 1-1-1z" fill="#ffa995"/>
<path d="m347 327 1 1-1-1z" fill="#ff8f6f"/>
<path d="m153 328 1 1-1-1m122 0 1 1-1-1z" fill="#ffa995"/>
<path d="m332 328 1 1-1-1z" fill="#ff8f6f"/>
<path d="m346 328 1 1-1-1z" fill="#ffa995"/>
<path d="m154 329 1 1-1-1m15 0 1 1-1-1m56.333 0.667c-0.055 0.055-0.111 1.111 0.334 0.666 0.055-0.055 0.111-1.111-0.334-0.666z" fill="#fec8bb"/>
<path d="m331 329 1 1-1-1z" fill="#ff8f6f"/>
<path d="m345 329 1 1-1-1m-190 1 1 1-1-1z" fill="#fec8bb"/>
<path d="m170 330 1 1-1-1z" fill="#ffa995"/>
<path d="m274 330 1 1-1-1z" fill="#ff8f6f"/>
<path d="m330 330 1 1-1-1z" fill="#ff7757"/>
<path d="m344 330 1 1-1-1z" fill="#fec8bb"/>
<path d="m171 331 1 1-1-1z" fill="#ffa995"/>
<path d="m226 331v3h1c-0.251-1.452-0.315-1.752-1-3z" fill="#fec8bb"/>
<path d="m273 331v3h1c-0.251-1.452-0.315-1.752-1-3z" fill="#ff7757"/>
<path d="m172 332 1 1-1-1m1 1 1 1-1-1z" fill="#ff8f6f"/>
<path d="m227 334v3h1c-0.251-1.452-0.315-1.752-1-3z" fill="#fec8bb"/>
<path d="m272 334v3h1c-0.251-1.452-0.315-1.752-1-3z" fill="#ff8f6f"/>
<path d="m325 334 1 1-1-1z" fill="#fec8bb"/>
<path d="m324 335 1 1-1-1z" fill="#ffa995"/>
<path d="m338 335 1 1-1-1m-176 1 1 1-1-1z" fill="#ff8f6f"/>
<path d="m323 336 1 1-1-1z" fill="#ffa995"/>
<path d="m337 336 1 1-1-1z" fill="#ff8f6f"/>
<path d="m163 337 1 1-1-1m65 0 1 1-1-1z" fill="#ffa995"/>
<path d="m272 337 1 1-1-1z" fill="#fec8bb"/>
<path d="m322 337 1 1-1-1m14 0 1 1-1-1z" fill="#ff8f6f"/>
<path d="m164 338 1 1-1-1m15 0 1 1-1-1z" fill="#fec8bb"/>
<path d="m271.33 338.67c-0.055 0.055-0.111 1.111 0.334 0.666 0.055-0.055 0.111-1.111-0.334-0.666m49.667-0.667 1 1-1-1z" fill="#ff8f6f"/>
<path d="m335 338 1 1-1-1z" fill="#fec8bb"/>
<path d="m180 339 1 1-1-1z" fill="#ffa995"/>
<path d="m320 339 1 1-1-1z" fill="#ff7757"/>
<path d="m181 340 1 1-1-1z" fill="#ffa995"/>
<path d="m271 340 1 1-1-1m62 0 1 1-1-1z" fill="#fec8bb"/>
<path d="m182 341 1 1-1-1z" fill="#ff8f6f"/>
<path d="m230.33 341.67c-0.055 0.055-0.111 1.111 0.334 0.666 0.055-0.055 0.111-1.111-0.334-0.666z" fill="#ff7757"/>
<path d="m270.33 341.67c-0.055 0.055-0.111 1.111 0.334 0.666 0.055-0.055 0.111-1.111-0.334-0.666z" fill="#ffa995"/>
<path d="m183 342 1 1-1-1z" fill="#ff8f6f"/>
<path d="m170 343 1 1-1-1m61 0v3h1c-0.251-1.452-0.315-1.752-1-3z" fill="#ff7757"/>
<path d="m269 343v3h1c-0.251-1.452-0.315-1.752-1-3z" fill="#ffa995"/>
<path d="m315 343 1 1-1-1z" fill="#fec8bb"/>
<path d="m171 344 1 1-1-1z" fill="#ff8f6f"/>
<path d="m314 344 1 1-1-1z" fill="#ffa995"/>
<path d="m328 344 1 1-1-1m-156 1 1 1-1-1z" fill="#ff8f6f"/>
<path d="m313 345 1 1-1-1z" fill="#ffa995"/>
<path d="m327 345 1 1-1-1z" fill="#ff8f6f"/>
<path d="m173 346 1 1-1-1z" fill="#ffa995"/>
<path d="m268 346 1 1-1-1m44 0 1 1-1-1z" fill="#ff8f6f"/>
<path d="m326 346 1 1-1-1z" fill="#ffa995"/>
<path d="m174 347 1 1-1-1m15 0 1 1-1-1z" fill="#fec8bb"/>
<path d="m232.33 347.67c-0.055 0.055-0.111 1.111 0.334 0.666 0.055-0.055 0.111-1.111-0.334-0.666z" fill="#ff8f6f"/>
<path d="m268.33 347.67c-0.055 0.055-0.111 1.111 0.334 0.666 0.055-0.055 0.111-1.111-0.334-0.666z" fill="#fec8bb"/>
<path d="m311 347 1 1-1-1z" fill="#ff8f6f"/>
<path d="m325 347 1 1-1-1m-150 1 1 1-1-1z" fill="#fec8bb"/>
<path d="m190 348 1 1-1-1z" fill="#ffa995"/>
<path d="m310 348 1 1-1-1z" fill="#ff7757"/>
<path d="m324 348 1 1-1-1z" fill="#fec8bb"/>
<path d="m191 349 1 1-1-1z" fill="#ffa995"/>
<path d="m232 349 1 1-1-1z" fill="#fec8bb"/>
<path d="m246.67 349.33c-0.445 0.445 0.611 0.389 0.666 0.334 0.445-0.445-0.611-0.389-0.666-0.334z" fill="#601b06"/>
<path d="m248 349v1h5c-1.769-0.779-3.036-0.912-5-1z" fill="#351c16"/>
<path d="m253.67 349.33c-0.445 0.445 0.611 0.389 0.666 0.334 0.445-0.445-0.611-0.389-0.666-0.334z" fill="#a4340e"/>
<path d="m192 350 1 1-1-1m41 0v3h1c-0.251-1.452-0.315-1.752-1-3z" fill="#ff8f6f"/>
<path d="m243 350 1 1-1-1z" fill="#a4340e"/>
<path d="m250 402c8.32-6.764 9.241-24.053 12.341-34 1.339-4.296 3.326-8.898 0.211-12.895-5.482-7.033-22.35-7.819-25.77 1.935-2.318 6.613 3.795 20.313 5.642 26.96 1.806 6.499 2.547 13.204 7.576 18z" fill="#010101"/>
<path d="m256 350 1 1-1-1z" fill="#601b06"/>
<path d="m267.33 350.67c-0.055 0.055-0.111 1.111 0.334 0.666 0.055-0.055 0.111-1.111-0.334-0.666z" fill="#fec8bb"/>
<path d="m193 351 1 1-1-1z" fill="#ff8f6f"/>
<path d="m241 351 1 1-1-1z" fill="#a4340e"/>
<path d="m258 351 1 1-1-1z" fill="#601b06"/>
<path d="m180 352 1 1-1-1z" fill="#ff7757"/>
<path d="m240 352 1 1-1-1z" fill="#601b06"/>
<path d="m260 352 1 1-1-1z" fill="#a4340e"/>
<path d="m305 352 1 1-1-1z" fill="#fec8bb"/>
<path d="m319 352 1 1-1-1z" fill="#ff7757"/>
<path d="m181 353 1 1-1-1z" fill="#ff8f6f"/>
<path d="m234 353v3h1c-0.251-1.452-0.315-1.752-1-3z" fill="#ffa995"/>
<path d="m261 353 1 1-1-1z" fill="#a4340e"/>
<path d="m266.33 353.67c-0.055 0.055-0.111 1.111 0.334 0.666 0.055-0.055 0.111-1.111-0.334-0.666z" fill="#fec8bb"/>
<path d="m304 353 1 1-1-1z" fill="#ffa995"/>
<path d="m318 353 1 1-1-1m-136 1 1 1-1-1z" fill="#ff8f6f"/>
<path d="m262 354 1 1-1-1z" fill="#a4340e"/>
<path d="m303 354 1 1-1-1z" fill="#ffa995"/>
<path d="m317 354 1 1-1-1z" fill="#ff8f6f"/>
<path d="m183 355 1 1-1-1z" fill="#ffa995"/>
<path d="m263 355 1 1-1-1z" fill="#c33f13"/>
<path d="m302 355 1 1-1-1z" fill="#ff8f6f"/>
<path d="m316 355 1 1-1-1z" fill="#ffa995"/>
<path d="m184 356 1 1-1-1m15 0 1 1-1-1z" fill="#fec8bb"/>
<path d="m235 356v4h1c-0.174-1.685-0.317-2.494-1-4z" fill="#ffa995"/>
<path d="m236 356 1 1-1-1z" fill="#601b06"/>
<path d="m265 356 1 1-1-1z" fill="#ffa995"/>
<path d="m301 356 1 1-1-1z" fill="#ff8f6f"/>
<path d="m315 356 1 1-1-1m-130 1 1 1-1-1z" fill="#fec8bb"/>
<path d="m200 357 1 1-1-1z" fill="#ffa995"/>
<path d="m264 357 1 1-1-1z" fill="#601b06"/>
<path d="m265.33 357.67c-0.055 0.055-0.111 1.111 0.334 0.666 0.055-0.055 0.111-1.111-0.334-0.666z" fill="#fec8bb"/>
<path d="m300 357 1 1-1-1z" fill="#ff7757"/>
<path d="m314 357 1 1-1-1z" fill="#fec8bb"/>
<path d="m201 358 1 1-1-1z" fill="#ffa995"/>
<path d="m202 359 1 1-1-1m1 1 1 1-1-1z" fill="#ff8f6f"/>
<path d="m264 360 1 1-1-1z" fill="#514e4d"/>
<path d="m190 361 1 1-1-1z" fill="#ff7757"/>
<path d="m236 361 1 1-1-1z" fill="#6e6765"/>
<path d="m264 361 1 1-1-1z" fill="#9a9391"/>
<path d="m295 361 1 1-1-1z" fill="#fec8bb"/>
<path d="m309 361 1 1-1-1z" fill="#ff7757"/>
<path d="m191 362 1 1-1-1z" fill="#ff8f6f"/>
<path d="m236 362 1 1-1-1z" fill="#9a9391"/>
<path d="m264 362 1 1-1-1z" fill="#fec8bb"/>
<path d="m294 362 1 1-1-1z" fill="#ffa995"/>
<path d="m308 362 1 1-1-1m-116 1 1 1-1-1z" fill="#ff8f6f"/>
<path d="m236 363 1 1-1-1z" fill="#fec8bb"/>
<path d="m293 363 1 1-1-1z" fill="#ffa995"/>
<path d="m307 363 1 1-1-1z" fill="#ff8f6f"/>
<path d="m193 364 1 1-1-1z" fill="#ffa995"/>
<path d="m237 364 1 1-1-1z" fill="#351c16"/>
<path d="m263 364 1 1-1-1z" fill="#84706b"/>
<path d="m292 364 1 1-1-1m14 0 1 1-1-1z" fill="#ffa995"/>
<path d="m194 365 1 1-1-1m15 0 1 1-1-1z" fill="#fec8bb"/>
<path d="m237 365 1 1-1-1z" fill="#84706b"/>
<path d="m263 365 1 1-1-1z" fill="#b4b5b5"/>
<path d="m291 365 1 1-1-1z" fill="#ff8f6f"/>
<path d="m305 365 1 1-1-1m-110 1 1 1-1-1z" fill="#fec8bb"/>
<path d="m210 366 1 1-1-1z" fill="#ffa995"/>
<path d="m237 366 1 1-1-1z" fill="#b4b5b5"/>
<path d="m290 366 1 1-1-1z" fill="#ff7757"/>
<path d="m304 366 1 1-1-1z" fill="#fec8bb"/>
<path d="m211 367 1 1-1-1z" fill="#ffa995"/>
<path d="m262 367 1 1-1-1z" fill="#514e4d"/>
<path d="m212 368 1 1-1-1z" fill="#ff8f6f"/>
<path d="m238 368 1 1-1-1z" fill="#514e4d"/>
<path d="m262 368 1 1-1-1z" fill="#9a9391"/>
<path d="m213 369 1 1-1-1z" fill="#ff8f6f"/>
<path d="m238 369 1 1-1-1z" fill="#84706b"/>
<path d="m262 369 1 1-1-1z" fill="#b4b5b5"/>
<path d="m200 370 1 1-1-1z" fill="#ff7757"/>
<path d="m261 370 1 1-1-1z" fill="#351c16"/>
<path d="m285 370 1 1-1-1z" fill="#fec8bb"/>
<path d="m299 370 1 1-1-1z" fill="#ff7757"/>
<path d="m201 371 1 1-1-1z" fill="#ff8f6f"/>
<path d="m261 371 1 1-1-1z" fill="#6e6765"/>
<path d="m284 371 1 1-1-1z" fill="#ffa995"/>
<path d="m298 371 1 1-1-1z" fill="#ff8f6f"/>
<path d="m202 372 1 1-1-1z" fill="#ffa995"/>
<path d="m239 372 1 1-1-1z" fill="#514e4d"/>
<path d="m261 372 1 1-1-1z" fill="#b4b5b5"/>
<path d="m283 372 1 1-1-1m14 0 1 1-1-1m-94 1 1 1-1-1z" fill="#ffa995"/>
<path d="m239 373 1 1-1-1z" fill="#84706b"/>
<path d="m282 373 1 1-1-1z" fill="#ff8f6f"/>
<path d="m296 373 1 1-1-1z" fill="#ffa995"/>
<path d="m204 374 1 1-1-1m15 0 1 1-1-1z" fill="#fec8bb"/>
<path d="m260 374 1 1-1-1z" fill="#514e4d"/>
<path d="m281 374 1 1-1-1z" fill="#ff8f6f"/>
<path d="m295 374 1 1-1-1m-90 1 1 1-1-1z" fill="#fec8bb"/>
<path d="m220 375 1 1-1-1z" fill="#ffa995"/>
<path d="m260 375 1 1-1-1z" fill="#84706b"/>
<path d="m280 375 1 1-1-1z" fill="#ff7757"/>
<path d="m294 375 1 1-1-1z" fill="#fec8bb"/>
<path d="m221 376 1 1-1-1z" fill="#ffa995"/>
<path d="m240 376 1 1-1-1z" fill="#6e6765"/>
<path d="m260 376 1 1-1-1z" fill="#b4b5b5"/>
<path d="m222 377 1 1-1-1z" fill="#ff8f6f"/>
<path d="m240 377 1 1-1-1z" fill="#9a9391"/>
<path d="m223 378 1 1-1-1z" fill="#ff8f6f"/>
<path d="m240 378 1 1-1-1z" fill="#b4b5b5"/>
<path d="m259 378 1 1-1-1z" fill="#514e4d"/>
<path d="m210 379 1 1-1-1z" fill="#ff8f6f"/>
<path d="m259 379 1 1-1-1z" fill="#9a9391"/>
<path d="m275 379 1 1-1-1z" fill="#fec8bb"/>
<path d="m289 379 1 1-1-1z" fill="#ff7757"/>
<path d="m211 380 1 1-1-1z" fill="#ff8f6f"/>
<path d="m241 380 1 1-1-1z" fill="#6e6765"/>
<path d="m274 380 1 1-1-1z" fill="#fec8bb"/>
<path d="m288 380 1 1-1-1z" fill="#ff8f6f"/>
<path d="m212 381 1 1-1-1z" fill="#ffa995"/>
<path d="m241 381 1 1-1-1z" fill="#9a9391"/>
<path d="m258 381 1 1-1-1z" fill="#351c16"/>
<path d="m273 381 1 1-1-1m14 0 1 1-1-1m-74 1 1 1-1-1z" fill="#ffa995"/>
<path d="m241 382 1 1-1-1z" fill="#fec8bb"/>
<path d="m258 382 1 1-1-1z" fill="#84706b"/>
<path d="m272 382 1 1-1-1z" fill="#ff8f6f"/>
<path d="m286 382 1 1-1-1z" fill="#ffa995"/>
<path d="m214 383 1 1-1-1m15 0 1 1-1-1z" fill="#fec8bb"/>
<path d="m258 383 1 1-1-1z" fill="#b4b5b5"/>
<path d="m271 383 1 1-1-1z" fill="#ff8f6f"/>
<path d="m285 383 1 1-1-1m-70 1 1 1-1-1m15 0 1 1-1-1z" fill="#fec8bb"/>
<path d="m242 384 1 1-1-1z" fill="#6e6765"/>
<path d="m270 384 1 1-1-1z" fill="#ff7757"/>
<path d="m284 384 1 1-1-1z" fill="#fec8bb"/>
<path d="m231 385 1 1-1-1z" fill="#ffa995"/>
<path d="m242 385 1 1-1-1z" fill="#b4b5b5"/>
<path d="m257 385 1 1-1-1z" fill="#514e4d"/>
<path d="m269 385 1 1-1-1z" fill="#ff7757"/>
<path d="m232 386 1 1-1-1z" fill="#ff8f6f"/>
<path d="m257 386 1 1-1-1z" fill="#9a9391"/>
<path d="m233 387 1 1-1-1z" fill="#ff8f6f"/>
<path d="m243 387 1 1-1-1z" fill="#514e4d"/>
<path d="m257 387 1 1-1-1z" fill="#b4b5b5"/>
<path d="m220 388 1 1-1-1z" fill="#ff8f6f"/>
<path d="m243 388 1 1-1-1z" fill="#6e6765"/>
<path d="m256 388 1 1-1-1z" fill="#351c16"/>
<path d="m265 388 1 1-1-1z" fill="#fec8bb"/>
<path d="m279 388 1 1-1-1m-58 1 1 1-1-1z" fill="#ff8f6f"/>
<path d="m243 389 1 1-1-1z" fill="#b4b5b5"/>
<path d="m256 389 1 1-1-1z" fill="#6e6765"/>
<path d="m264 389 1 1-1-1z" fill="#fec8bb"/>
<path d="m278 389 1 1-1-1z" fill="#ff8f6f"/>
<path d="m222 390 1 1-1-1z" fill="#ffa995"/>
<path d="m256 390 1 1-1-1z" fill="#b4b5b5"/>
<path d="m263 390 1 1-1-1m14 0 1 1-1-1m-54 1 1 1-1-1z" fill="#ffa995"/>
<path d="m244 391 1 1-1-1z" fill="#514e4d"/>
<path d="m262 391 1 1-1-1z" fill="#ff8f6f"/>
<path d="m276 391 1 1-1-1z" fill="#ffa995"/>
<path d="m224 392 1 1-1-1m15 0 1 1-1-1z" fill="#fec8bb"/>
<path d="m244 392 1 1-1-1z" fill="#84706b"/>
<path d="m255 392 1 1-1-1z" fill="#514e4d"/>
<path d="m261 392 1 1-1-1z" fill="#ff8f6f"/>
<path d="m275 392 1 1-1-1m-50 1 1 1-1-1m15 0 1 1-1-1z" fill="#fec8bb"/>
<path d="m244 393 1 1-1-1z" fill="#b4b5b5"/>
<path d="m255 393 1 1-1-1z" fill="#84706b"/>
<path d="m260 393 1 1-1-1z" fill="#ff7757"/>
<path d="m274 393 1 1-1-1z" fill="#fec8bb"/>
<path d="m241 394 1 1-1-1z" fill="#ffa995"/>
<path d="m255 394 1 1-1-1z" fill="#b4b5b5"/>
<path d="m259 394 1 1-1-1z" fill="#ff7757"/>
<path d="m242 395 1 1-1-1z" fill="#ff8f6f"/>
<path d="m245 395 1 1-1-1z" fill="#514e4d"/>
<path d="m229 396 1 1-1-1z" fill="#ff7757"/>
<path d="m243 396 1 1-1-1z" fill="#ff8f6f"/>
<path d="m245 396 1 1-1-1z" fill="#9a9391"/>
<path d="m254 396 1 1-1-1z" fill="#6e6765"/>
<path d="m230 397 1 1-1-1m14 0 1 1-1-1z" fill="#ff8f6f"/>
<path d="m245 397 1 1-1-1m9 0 1 1-1-1z" fill="#b4b5b5"/>
<path d="m269 397 1 1-1-1m-38 1 1 1-1-1m23 0 1 1-1-1m14 0 1 1-1-1z" fill="#ff8f6f"/>
<path d="m232 399 1 1-1-1z" fill="#ffa995"/>
<path d="m253 399 1 1-1-1z" fill="#a4340e"/>
<path d="m267 399 1 1-1-1z" fill="#ffa995"/>
<path d="m233 400 1 1-1-1z" fill="#fec8bb"/>
<path d="m248 400 1 1-1-1z" fill="#601b06"/>
<path d="m252 400 1 1-1-1z" fill="#a4340e"/>
<path d="m266 400 1 1-1-1z" fill="#ffa995"/>
<path d="m234 401 1 1-1-1z" fill="#fec8bb"/>
<path d="m249 401 1 1-1-1z" fill="#601b06"/>
<path d="m251 401 1 1-1-1z" fill="#c33f13"/>
<path d="m265 401 1 1-1-1z" fill="#fec8bb"/>
<path d="m239 405 1 1-1-1z" fill="#ff7757"/>
<path d="m240 406 1 1-1-1m19 0 1 1-1-1m-18 1 1 1-1-1m17 0 1 1-1-1z" fill="#ff8f6f"/>
<path d="m242 408 1 1-1-1m15 0 1 1-1-1z" fill="#ffa995"/>
<path d="m243 409 1 1-1-1m13 0 1 1-1-1m-12 1 1 1-1-1m11 0 1 1-1-1z" fill="#fec8bb"/>
<path d="m248.67 413.33c-0.445 0.445 0.611 0.389 0.666 0.334 0.445-0.445-0.611-0.389-0.666-0.334m2.333-0.333 1 1-1-1z" fill="#ff8f6f"/>
</svg>
